<?xml version="1.0" encoding="UTF-8"?>
<svg xmlns="http://www.w3.org/2000/svg" xmlns:xlink="http://www.w3.org/1999/xlink" width="241px" height="181px" viewBox="0 0 241 181" version="1.1">
<g id="surface1">
<path style=" stroke:none;fill-rule:nonzero;fill:rgb(0%,0%,0%);fill-opacity:1;" d="M 65.460938 38.160156 C 64.589844 38.886719 64.167969 39.578125 63.925781 40.484375 C 63.351562 42.957031 59.527344 64.527344 59.648438 64.648438 C 59.949219 64.949219 80.492188 75.75 80.554688 75.65625 C 80.613281 75.597656 80.824219 74.480469 81.066406 73.152344 L 81.488281 70.742188 L 89.472656 70.558594 C 96.582031 70.410156 97.664062 70.320312 99.441406 69.746094 C 103.507812 68.386719 106.671875 65.582031 108.511719 61.660156 C 109.445312 59.699219 109.503906 59.367188 109.59375 55.507812 C 109.683594 51.828125 109.625 51.34375 109.082031 50.4375 C 107.816406 48.449219 107.183594 48.265625 100.617188 48.265625 L 94.742188 48.265625 L 92.332031 46.125 C 91.007812 44.949219 89.589844 43.800781 89.171875 43.589844 C 87.785156 42.867188 84.890625 42.535156 79.863281 42.535156 L 74.859375 42.503906 L 73.054688 40.210938 C 71.09375 37.738281 70.070312 37.105469 67.992188 37.105469 C 66.9375 37.105469 66.457031 37.316406 65.460938 38.160156 Z M 87.511719 48.992188 C 88.234375 49.59375 88.417969 49.925781 88.417969 50.980469 C 88.417969 52.039062 88.234375 52.371094 87.511719 52.972656 C 85.945312 54.210938 83.867188 53.847656 82.996094 52.1875 C 82.332031 50.890625 82.421875 50.136719 83.417969 49.140625 C 84.5625 47.996094 86.1875 47.933594 87.511719 48.992188 Z M 87.511719 48.992188 "/>
<path style=" stroke:none;fill-rule:nonzero;fill:rgb(0%,0%,0%);fill-opacity:1;" d="M 5.390625 59.519531 C 2.863281 60.453125 1.203125 62.597656 1.203125 64.949219 C 1.203125 66.609375 2.921875 71.554688 4.15625 73.484375 C 5.722656 75.898438 8.316406 78.191406 10.996094 79.519531 L 13.253906 80.636719 L 13.253906 121.78125 L 13.949219 123.109375 C 14.429688 123.984375 15.152344 124.738281 16.117188 125.34375 C 17.5625 126.246094 17.59375 126.246094 22.261719 126.246094 C 26.570312 126.246094 27.082031 126.1875 28.226562 125.554688 C 28.949219 125.191406 29.882812 124.316406 30.335938 123.621094 L 31.179688 122.355469 L 31.269531 111.554688 C 31.300781 105.613281 31.421875 100.757812 31.511719 100.757812 C 31.570312 100.757812 32.445312 101.089844 33.46875 101.480469 C 41.269531 104.679688 50.820312 104.679688 59.257812 101.511719 C 60.339844 101.089844 61.273438 100.757812 61.335938 100.757812 C 61.394531 100.757812 61.453125 105.492188 61.453125 111.253906 C 61.453125 121.691406 61.453125 121.78125 62.148438 123.109375 C 62.628906 123.984375 63.351562 124.738281 64.316406 125.34375 C 65.761719 126.246094 65.792969 126.246094 70.460938 126.246094 C 74.769531 126.246094 75.28125 126.1875 76.425781 125.554688 C 77.148438 125.191406 78.085938 124.316406 78.535156 123.621094 L 79.378906 122.355469 L 79.441406 101.992188 L 79.53125 81.601562 L 68.867188 75.929688 L 58.230469 70.289062 L 18.195312 70.289062 L 16.660156 69.535156 C 14.941406 68.660156 13.886719 67.058594 13.253906 64.285156 C 12.441406 60.753906 8.523438 58.402344 5.390625 59.519531 Z M 5.390625 59.519531 "/>
<path style=" stroke:none;fill-rule:nonzero;fill:rgb(0%,0%,0%);fill-opacity:1;" d="M 118.390625 94.121094 C 118.390625 103.832031 118.570312 104.375 121.976562 104.375 C 123.421875 104.375 123.511719 104.316406 123.511719 103.621094 C 123.511719 102.988281 123.363281 102.867188 122.667969 102.867188 C 122.21875 102.867188 121.523438 102.65625 121.164062 102.386719 C 120.5 101.933594 120.5 101.84375 120.5 94.242188 L 120.5 86.578125 L 118.390625 86.578125 Z M 118.390625 94.121094 "/>
<path style=" stroke:none;fill-rule:nonzero;fill:rgb(0%,0%,0%);fill-opacity:1;" d="M 96.007812 87.242188 C 93.296875 87.632812 92.152344 88.960938 91.550781 92.429688 C 91.160156 94.84375 91.339844 99.097656 91.910156 101.058594 C 92.753906 103.863281 94.832031 104.890625 98.960938 104.558594 C 102.335938 104.257812 102.726562 104.136719 102.726562 103.289062 C 102.726562 102.597656 102.695312 102.597656 99.320312 102.65625 C 94.082031 102.746094 93.539062 102.113281 93.539062 95.628906 C 93.539062 92.371094 93.628906 91.707031 94.171875 90.800781 C 95.105469 89.171875 95.796875 88.929688 99.503906 89.082031 C 102.695312 89.171875 102.726562 89.171875 102.726562 88.507812 C 102.726562 88.117188 102.605469 87.753906 102.457031 87.632812 C 101.914062 87.300781 97.453125 87.03125 96.007812 87.242188 Z M 96.007812 87.242188 "/>
<path style=" stroke:none;fill-rule:nonzero;fill:rgb(0%,0%,0%);fill-opacity:1;" d="M 131.34375 95.777344 L 131.34375 104.375 L 133.453125 104.375 L 133.453125 98.34375 L 136.648438 98.34375 C 140.351562 98.34375 141.285156 97.980469 142.21875 96.171875 C 143.035156 94.601562 143.003906 90.921875 142.191406 89.324219 C 141.285156 87.511719 140.261719 87.183594 135.441406 87.183594 L 131.34375 87.183594 Z M 139.269531 89.324219 C 140.171875 89.746094 140.652344 90.621094 140.742188 92.007812 C 140.863281 94.210938 140.683594 95.054688 139.929688 95.777344 C 139.269531 96.472656 138.964844 96.535156 136.316406 96.535156 L 133.453125 96.535156 L 133.453125 88.992188 L 136.015625 88.992188 C 137.398438 88.992188 138.875 89.140625 139.269531 89.324219 Z M 139.269531 89.324219 "/>
<path style=" stroke:none;fill-rule:nonzero;fill:rgb(0%,0%,0%);fill-opacity:1;" d="M 172.917969 95.777344 L 172.917969 104.375 L 174.875 104.375 L 174.785156 100.757812 L 174.695312 97.136719 L 183.160156 97.136719 L 183.160156 104.375 L 185.269531 104.375 L 185.269531 87.183594 L 183.160156 87.183594 L 183.160156 95.023438 L 174.726562 95.023438 L 174.726562 87.183594 L 172.917969 87.183594 Z M 172.917969 95.777344 "/>
<path style=" stroke:none;fill-rule:nonzero;fill:rgb(0%,0%,0%);fill-opacity:1;" d="M 158.910156 89.804688 C 158.636719 91.859375 158.578125 91.949219 157.644531 92.070312 C 157.042969 92.128906 156.769531 92.339844 156.710938 92.824219 C 156.621094 93.367188 156.769531 93.488281 157.613281 93.578125 L 158.609375 93.667969 L 158.636719 97.289062 C 158.667969 102.507812 158.667969 102.507812 159.632812 103.5 C 160.414062 104.285156 160.71875 104.375 162.375 104.375 C 164.121094 104.375 164.210938 104.347656 164.121094 103.714844 C 164.0625 103.171875 163.757812 102.988281 162.855469 102.839844 C 160.808594 102.507812 160.535156 101.871094 160.625 97.46875 L 160.71875 93.667969 L 162.464844 93.578125 C 164.0625 93.488281 164.179688 93.425781 164.179688 92.761719 C 164.179688 92.097656 164.0625 92.039062 162.464844 91.949219 L 160.71875 91.859375 L 160.625 90.109375 C 160.535156 88.507812 160.476562 88.386719 159.8125 88.386719 C 159.179688 88.386719 159.058594 88.570312 158.910156 89.804688 Z M 158.910156 89.804688 "/>
<path style=" stroke:none;fill-rule:nonzero;fill:rgb(0%,0%,0%);fill-opacity:1;" d="M 107.246094 92.070312 C 105.226562 92.824219 104.261719 95.566406 104.625 99.550781 C 104.957031 103.261719 106.3125 104.527344 109.957031 104.527344 C 114.292969 104.496094 115.53125 102.929688 115.320312 97.589844 C 115.199219 94.300781 114.867188 93.394531 113.390625 92.429688 C 112.394531 91.765625 108.691406 91.554688 107.246094 92.070312 Z M 111.914062 93.699219 C 112.816406 94.058594 113.269531 95.507812 113.269531 98.164062 C 113.269531 101.992188 112.636719 102.867188 109.777344 102.867188 C 107.304688 102.867188 106.460938 101.269531 106.703125 97.105469 C 106.792969 95.207031 106.914062 94.875 107.636719 94.242188 C 108.269531 93.699219 108.839844 93.515625 109.957031 93.515625 C 110.738281 93.515625 111.644531 93.605469 111.914062 93.699219 Z M 111.914062 93.699219 "/>
<path style=" stroke:none;fill-rule:nonzero;fill:rgb(0%,0%,0%);fill-opacity:1;" d="M 147.644531 92.070312 C 147.070312 92.28125 146.378906 92.792969 146.046875 93.214844 C 144.78125 94.964844 144.628906 100.273438 145.804688 102.597656 C 146.707031 104.316406 148.695312 104.890625 152.582031 104.527344 C 154.722656 104.347656 154.84375 104.285156 154.84375 103.59375 C 154.84375 102.867188 154.8125 102.867188 151.859375 102.867188 C 149.179688 102.867188 148.757812 102.808594 148.0625 102.175781 C 147.523438 101.691406 147.28125 101.179688 147.222656 100.304688 L 147.160156 99.097656 L 150.414062 98.945312 C 153.546875 98.796875 153.726562 98.765625 154.421875 97.949219 C 155.6875 96.472656 155.203125 93.367188 153.578125 92.339844 C 152.644531 91.765625 148.9375 91.617188 147.644531 92.070312 Z M 151.980469 93.636719 C 152.792969 93.96875 153.035156 94.300781 153.1875 95.117188 C 153.578125 97.195312 152.671875 97.738281 148.9375 97.738281 C 147.011719 97.738281 147.011719 97.738281 147.011719 96.863281 C 147.011719 93.9375 149.238281 92.492188 151.980469 93.636719 Z M 151.980469 93.636719 "/>
<path style=" stroke:none;fill-rule:nonzero;fill:rgb(0%,0%,0%);fill-opacity:1;" d="M 190.84375 92.128906 C 188.914062 92.972656 188.25 94.421875 188.25 97.921875 C 188.222656 102.414062 189.035156 103.832031 191.925781 104.4375 C 194.214844 104.917969 196.203125 104.558594 197.46875 103.441406 C 198.703125 102.355469 199.277344 100.125 199.066406 97.136719 C 198.855469 94.421875 198.132812 92.972656 196.597656 92.28125 C 195.148438 91.617188 192.167969 91.554688 190.84375 92.128906 Z M 195.570312 93.847656 C 196.476562 94.332031 197.015625 95.960938 197.015625 98.191406 C 197.015625 101.570312 196.113281 102.867188 193.792969 102.867188 C 192.046875 102.867188 191.292969 102.566406 190.871094 101.691406 C 189.789062 99.550781 190.089844 94.875 191.382812 93.96875 C 192.136719 93.457031 194.667969 93.367188 195.570312 93.847656 Z M 195.570312 93.847656 "/>
<path style=" stroke:none;fill-rule:nonzero;fill:rgb(0%,0%,0%);fill-opacity:1;" d="M 217.019531 92.128906 C 215.632812 92.730469 215.09375 93.699219 215.09375 95.507812 C 215.09375 96.382812 215.183594 97.316406 215.273438 97.589844 C 215.605469 98.402344 217.082031 98.945312 219.519531 99.128906 C 220.816406 99.25 222.050781 99.460938 222.261719 99.640625 C 222.714844 100.003906 222.746094 102.023438 222.261719 102.507812 C 222.019531 102.746094 220.757812 102.867188 218.496094 102.867188 C 215.121094 102.867188 215.09375 102.867188 215.09375 103.59375 C 215.09375 104.226562 215.273438 104.316406 216.6875 104.496094 C 220.242188 104.917969 222.746094 104.558594 223.859375 103.441406 C 224.3125 102.988281 224.429688 102.445312 224.429688 100.9375 C 224.429688 99.15625 224.371094 98.945312 223.496094 98.222656 C 222.714844 97.558594 222.292969 97.4375 220.695312 97.4375 C 219.640625 97.4375 218.375 97.289062 217.832031 97.105469 C 216.992188 96.804688 216.898438 96.652344 216.898438 95.449219 C 216.898438 93.726562 217.320312 93.515625 221.085938 93.515625 C 224.070312 93.515625 224.128906 93.515625 224.128906 92.792969 C 224.128906 92.160156 223.949219 92.070312 222.5625 91.886719 C 220.09375 91.617188 218.042969 91.707031 217.019531 92.128906 Z M 217.019531 92.128906 "/>
<path style=" stroke:none;fill-rule:nonzero;fill:rgb(0%,0%,0%);fill-opacity:1;" d="M 229.28125 92.25 C 227.535156 93.125 227.050781 94.089844 226.902344 97.015625 C 226.570312 103.410156 228.289062 105.128906 234.371094 104.527344 C 236.332031 104.316406 236.480469 104.257812 236.480469 103.59375 C 236.480469 102.867188 236.449219 102.867188 233.5 102.867188 C 229.882812 102.867188 229.28125 102.535156 229.039062 100.363281 L 228.859375 98.945312 L 231.78125 98.945312 C 234.824219 98.945312 236.210938 98.554688 236.601562 97.589844 C 236.964844 96.59375 236.78125 93.96875 236.300781 93.246094 C 235.214844 91.738281 231.359375 91.164062 229.28125 92.25 Z M 234.433594 94.03125 C 235.125 94.632812 235.15625 96.625 234.492188 97.167969 C 234.222656 97.378906 232.957031 97.621094 231.480469 97.679688 L 228.949219 97.832031 L 228.949219 96.472656 C 228.949219 94.933594 229.734375 93.636719 230.847656 93.425781 C 231.933594 93.183594 233.859375 93.515625 234.433594 94.03125 Z M 234.433594 94.03125 "/>
<path style=" stroke:none;fill-rule:nonzero;fill:rgb(0%,0%,0%);fill-opacity:1;" d="M 201.835938 96.441406 C 201.835938 98.917969 201.988281 101.390625 202.140625 101.992188 C 202.800781 104.40625 205.121094 105.191406 208.375 104.105469 C 210.605469 103.351562 210.574219 103.351562 210.574219 103.925781 C 210.574219 104.226562 210.875 104.375 211.476562 104.375 L 212.382812 104.375 L 212.382812 92.007812 L 210.273438 92.007812 L 210.273438 101.632812 L 209.308594 102.144531 C 208.765625 102.414062 207.621094 102.65625 206.746094 102.6875 C 204.21875 102.746094 204.128906 102.535156 204.007812 96.835938 L 203.917969 92.007812 L 201.835938 92.007812 Z M 201.835938 96.441406 "/>
</g>
</svg>
